<mxfile host="app.diagrams.net" modified="2024-05-22T01:50:26.572Z" agent="Mozilla/5.0 (Windows NT 10.0; Win64; x64) AppleWebKit/537.36 (KHTML, like Gecko) Chrome/125.0.0.0 Safari/537.36" etag="Ofhc-vP_VCvxfV0jzx3z" version="24.4.4" type="github">
  <diagram name="Сторінка-1" id="vmdYZKNMvbxhTEBgULwF">
    <mxGraphModel dx="1613" dy="663" grid="1" gridSize="10" guides="1" tooltips="1" connect="1" arrows="1" fold="1" page="1" pageScale="1" pageWidth="827" pageHeight="1169" math="0" shadow="0">
      <root>
        <mxCell id="0" />
        <mxCell id="1" parent="0" />
        <mxCell id="XnhMb_7bqTzePBn5cl9Z-1" value="Профіль" style="shape=module;align=left;spacingLeft=20;align=center;verticalAlign=top;whiteSpace=wrap;html=1;" vertex="1" parent="1">
          <mxGeometry x="200" y="220" width="100" height="50" as="geometry" />
        </mxCell>
        <mxCell id="XnhMb_7bqTzePBn5cl9Z-3" value="" style="rounded=0;orthogonalLoop=1;jettySize=auto;html=1;endArrow=halfCircle;endFill=0;endSize=6;strokeWidth=1;sketch=0;" edge="1" target="XnhMb_7bqTzePBn5cl9Z-5" parent="1" source="XnhMb_7bqTzePBn5cl9Z-1">
          <mxGeometry relative="1" as="geometry">
            <mxPoint x="380" y="255" as="sourcePoint" />
            <Array as="points" />
          </mxGeometry>
        </mxCell>
        <mxCell id="XnhMb_7bqTzePBn5cl9Z-4" value="" style="rounded=0;orthogonalLoop=1;jettySize=auto;html=1;endArrow=oval;endFill=0;sketch=0;sourcePerimeterSpacing=0;targetPerimeterSpacing=0;endSize=10;" edge="1" target="XnhMb_7bqTzePBn5cl9Z-5" parent="1" source="XnhMb_7bqTzePBn5cl9Z-8">
          <mxGeometry relative="1" as="geometry">
            <mxPoint x="340" y="255" as="sourcePoint" />
          </mxGeometry>
        </mxCell>
        <mxCell id="XnhMb_7bqTzePBn5cl9Z-5" value="" style="ellipse;whiteSpace=wrap;html=1;align=center;aspect=fixed;fillColor=none;strokeColor=none;resizable=0;perimeter=centerPerimeter;rotatable=0;allowArrows=0;points=[];outlineConnect=1;" vertex="1" parent="1">
          <mxGeometry x="355" y="250" width="10" height="10" as="geometry" />
        </mxCell>
        <mxCell id="XnhMb_7bqTzePBn5cl9Z-6" value="«interface»&lt;br&gt;&lt;b&gt;Показати на екран&lt;/b&gt;" style="html=1;whiteSpace=wrap;" vertex="1" parent="1">
          <mxGeometry x="200" y="320" width="110" height="50" as="geometry" />
        </mxCell>
        <mxCell id="XnhMb_7bqTzePBn5cl9Z-7" value="" style="endArrow=block;dashed=1;endFill=0;endSize=12;html=1;rounded=0;" edge="1" parent="1" source="XnhMb_7bqTzePBn5cl9Z-1" target="XnhMb_7bqTzePBn5cl9Z-6">
          <mxGeometry width="160" relative="1" as="geometry">
            <mxPoint x="330" y="380" as="sourcePoint" />
            <mxPoint x="490" y="380" as="targetPoint" />
          </mxGeometry>
        </mxCell>
        <mxCell id="XnhMb_7bqTzePBn5cl9Z-8" value="Працівник" style="shape=module;align=left;spacingLeft=20;align=center;verticalAlign=top;whiteSpace=wrap;html=1;" vertex="1" parent="1">
          <mxGeometry x="380" y="280" width="100" height="50" as="geometry" />
        </mxCell>
        <mxCell id="XnhMb_7bqTzePBn5cl9Z-9" value="Менеджер" style="shape=module;align=left;spacingLeft=20;align=center;verticalAlign=top;whiteSpace=wrap;html=1;" vertex="1" parent="1">
          <mxGeometry x="430" y="120" width="100" height="50" as="geometry" />
        </mxCell>
        <mxCell id="XnhMb_7bqTzePBn5cl9Z-10" value="Директор" style="shape=module;align=left;spacingLeft=20;align=center;verticalAlign=top;whiteSpace=wrap;html=1;" vertex="1" parent="1">
          <mxGeometry x="430" y="198" width="100" height="50" as="geometry" />
        </mxCell>
        <mxCell id="XnhMb_7bqTzePBn5cl9Z-11" value="Проєкт" style="shape=module;align=left;spacingLeft=20;align=center;verticalAlign=top;whiteSpace=wrap;html=1;" vertex="1" parent="1">
          <mxGeometry x="665" y="105" width="100" height="50" as="geometry" />
        </mxCell>
        <mxCell id="XnhMb_7bqTzePBn5cl9Z-12" value="Завдання" style="shape=module;align=left;spacingLeft=20;align=center;verticalAlign=top;whiteSpace=wrap;html=1;" vertex="1" parent="1">
          <mxGeometry x="640" y="250" width="100" height="50" as="geometry" />
        </mxCell>
        <mxCell id="XnhMb_7bqTzePBn5cl9Z-13" value="Дошка" style="shape=module;align=left;spacingLeft=20;align=center;verticalAlign=top;whiteSpace=wrap;html=1;" vertex="1" parent="1">
          <mxGeometry x="520" y="310" width="100" height="50" as="geometry" />
        </mxCell>
        <mxCell id="XnhMb_7bqTzePBn5cl9Z-14" value="Історія активності" style="shape=module;align=left;spacingLeft=20;align=center;verticalAlign=top;whiteSpace=wrap;html=1;" vertex="1" parent="1">
          <mxGeometry x="660" y="380" width="100" height="50" as="geometry" />
        </mxCell>
        <mxCell id="XnhMb_7bqTzePBn5cl9Z-15" value="Коміт" style="shape=module;align=left;spacingLeft=20;align=center;verticalAlign=top;whiteSpace=wrap;html=1;" vertex="1" parent="1">
          <mxGeometry x="495" y="420" width="100" height="50" as="geometry" />
        </mxCell>
        <mxCell id="XnhMb_7bqTzePBn5cl9Z-16" value="Github api" style="shape=module;align=left;spacingLeft=20;align=center;verticalAlign=top;whiteSpace=wrap;html=1;" vertex="1" parent="1">
          <mxGeometry x="480" y="510" width="100" height="50" as="geometry" />
        </mxCell>
        <mxCell id="XnhMb_7bqTzePBn5cl9Z-17" value="Запит" style="shape=module;align=left;spacingLeft=20;align=center;verticalAlign=top;whiteSpace=wrap;html=1;" vertex="1" parent="1">
          <mxGeometry x="740" y="50" width="100" height="50" as="geometry" />
        </mxCell>
        <mxCell id="XnhMb_7bqTzePBn5cl9Z-18" value="«interface»&lt;br&gt;&lt;b&gt;Запит на редагування профілю&lt;/b&gt;" style="html=1;whiteSpace=wrap;" vertex="1" parent="1">
          <mxGeometry x="400" y="30" width="110" height="60" as="geometry" />
        </mxCell>
        <mxCell id="XnhMb_7bqTzePBn5cl9Z-19" value="«interface»&lt;br&gt;&lt;b&gt;Запит на підтвердження виконання&lt;/b&gt;" style="html=1;whiteSpace=wrap;" vertex="1" parent="1">
          <mxGeometry x="880" y="105" width="110" height="100" as="geometry" />
        </mxCell>
        <mxCell id="XnhMb_7bqTzePBn5cl9Z-20" value="Навичка" style="shape=module;align=left;spacingLeft=20;align=center;verticalAlign=top;whiteSpace=wrap;html=1;" vertex="1" parent="1">
          <mxGeometry x="20" y="230" width="100" height="50" as="geometry" />
        </mxCell>
        <mxCell id="XnhMb_7bqTzePBn5cl9Z-21" value="Звіт" style="shape=module;align=left;spacingLeft=20;align=center;verticalAlign=top;whiteSpace=wrap;html=1;" vertex="1" parent="1">
          <mxGeometry x="265" y="580" width="100" height="50" as="geometry" />
        </mxCell>
        <mxCell id="XnhMb_7bqTzePBn5cl9Z-23" value="«interface»&lt;br&gt;&lt;b&gt;Звіт працівника&lt;/b&gt;&lt;div&gt;&lt;div&gt;створення&lt;/div&gt;&lt;div&gt;збереження&lt;/div&gt;&lt;div&gt;вивід на екран&lt;/div&gt;&lt;/div&gt;" style="html=1;whiteSpace=wrap;" vertex="1" parent="1">
          <mxGeometry x="285" y="470" width="110" height="70" as="geometry" />
        </mxCell>
        <mxCell id="XnhMb_7bqTzePBn5cl9Z-24" value="«interface»&lt;br&gt;&lt;b&gt;Звіт проєкту&lt;/b&gt;&lt;div&gt;&lt;div&gt;створення&lt;/div&gt;&lt;div&gt;збереження&lt;/div&gt;&lt;div&gt;вивід на екран&lt;/div&gt;&lt;/div&gt;" style="html=1;whiteSpace=wrap;" vertex="1" parent="1">
          <mxGeometry x="110" y="550" width="110" height="70" as="geometry" />
        </mxCell>
        <mxCell id="XnhMb_7bqTzePBn5cl9Z-26" value="«interface»&lt;br&gt;&lt;b&gt;Звіт для податкової&lt;/b&gt;&lt;div&gt;&lt;div&gt;створення&lt;/div&gt;&lt;div&gt;збереження&lt;/div&gt;&lt;div&gt;вивід на екран&lt;/div&gt;&lt;/div&gt;" style="html=1;whiteSpace=wrap;" vertex="1" parent="1">
          <mxGeometry x="425" y="604" width="110" height="110" as="geometry" />
        </mxCell>
        <mxCell id="XnhMb_7bqTzePBn5cl9Z-27" value="" style="rounded=0;orthogonalLoop=1;jettySize=auto;html=1;endArrow=halfCircle;endFill=0;endSize=6;strokeWidth=1;sketch=0;" edge="1" target="XnhMb_7bqTzePBn5cl9Z-29" parent="1" source="XnhMb_7bqTzePBn5cl9Z-1">
          <mxGeometry relative="1" as="geometry">
            <mxPoint x="150" y="315" as="sourcePoint" />
          </mxGeometry>
        </mxCell>
        <mxCell id="XnhMb_7bqTzePBn5cl9Z-28" value="" style="rounded=0;orthogonalLoop=1;jettySize=auto;html=1;endArrow=oval;endFill=0;sketch=0;sourcePerimeterSpacing=0;targetPerimeterSpacing=0;endSize=10;" edge="1" target="XnhMb_7bqTzePBn5cl9Z-29" parent="1" source="XnhMb_7bqTzePBn5cl9Z-20">
          <mxGeometry relative="1" as="geometry">
            <mxPoint x="110" y="315" as="sourcePoint" />
          </mxGeometry>
        </mxCell>
        <mxCell id="XnhMb_7bqTzePBn5cl9Z-29" value="" style="ellipse;whiteSpace=wrap;html=1;align=center;aspect=fixed;fillColor=none;strokeColor=none;resizable=0;perimeter=centerPerimeter;rotatable=0;allowArrows=0;points=[];outlineConnect=1;" vertex="1" parent="1">
          <mxGeometry x="160" y="250" width="10" height="10" as="geometry" />
        </mxCell>
        <mxCell id="XnhMb_7bqTzePBn5cl9Z-30" value="Дані про навичку" style="text;html=1;align=center;verticalAlign=middle;resizable=0;points=[];autosize=1;strokeColor=none;fillColor=none;" vertex="1" parent="1">
          <mxGeometry x="110" y="258" width="120" height="30" as="geometry" />
        </mxCell>
        <mxCell id="XnhMb_7bqTzePBn5cl9Z-31" value="" style="rounded=0;orthogonalLoop=1;jettySize=auto;html=1;endArrow=oval;endFill=0;sketch=0;sourcePerimeterSpacing=0;targetPerimeterSpacing=0;endSize=10;entryX=0.852;entryY=0.981;entryDx=0;entryDy=0;entryPerimeter=0;" edge="1" parent="1" source="XnhMb_7bqTzePBn5cl9Z-9" target="XnhMb_7bqTzePBn5cl9Z-5">
          <mxGeometry relative="1" as="geometry">
            <mxPoint x="450" y="228" as="sourcePoint" />
            <mxPoint x="370" y="265" as="targetPoint" />
          </mxGeometry>
        </mxCell>
        <mxCell id="XnhMb_7bqTzePBn5cl9Z-32" value="" style="rounded=0;orthogonalLoop=1;jettySize=auto;html=1;endArrow=oval;endFill=0;sketch=0;sourcePerimeterSpacing=0;targetPerimeterSpacing=0;endSize=10;entryX=0.341;entryY=0.3;entryDx=0;entryDy=0;entryPerimeter=0;" edge="1" parent="1" source="XnhMb_7bqTzePBn5cl9Z-10" target="XnhMb_7bqTzePBn5cl9Z-5">
          <mxGeometry relative="1" as="geometry">
            <mxPoint x="460" y="238" as="sourcePoint" />
            <mxPoint x="360" y="250" as="targetPoint" />
          </mxGeometry>
        </mxCell>
        <mxCell id="XnhMb_7bqTzePBn5cl9Z-33" value="Пошуковик" style="shape=module;align=left;spacingLeft=20;align=center;verticalAlign=top;whiteSpace=wrap;html=1;" vertex="1" parent="1">
          <mxGeometry x="230" y="120" width="100" height="50" as="geometry" />
        </mxCell>
        <mxCell id="XnhMb_7bqTzePBn5cl9Z-34" value="" style="rounded=0;orthogonalLoop=1;jettySize=auto;html=1;endArrow=halfCircle;endFill=0;endSize=6;strokeWidth=1;sketch=0;" edge="1" target="XnhMb_7bqTzePBn5cl9Z-36" parent="1" source="XnhMb_7bqTzePBn5cl9Z-11">
          <mxGeometry relative="1" as="geometry">
            <mxPoint x="710" y="225" as="sourcePoint" />
          </mxGeometry>
        </mxCell>
        <mxCell id="XnhMb_7bqTzePBn5cl9Z-35" value="" style="rounded=0;orthogonalLoop=1;jettySize=auto;html=1;endArrow=oval;endFill=0;sketch=0;sourcePerimeterSpacing=0;targetPerimeterSpacing=0;endSize=10;" edge="1" target="XnhMb_7bqTzePBn5cl9Z-36" parent="1" source="XnhMb_7bqTzePBn5cl9Z-12">
          <mxGeometry relative="1" as="geometry">
            <mxPoint x="670" y="225" as="sourcePoint" />
          </mxGeometry>
        </mxCell>
        <mxCell id="XnhMb_7bqTzePBn5cl9Z-36" value="" style="ellipse;whiteSpace=wrap;html=1;align=center;aspect=fixed;fillColor=none;strokeColor=none;resizable=0;perimeter=centerPerimeter;rotatable=0;allowArrows=0;points=[];outlineConnect=1;" vertex="1" parent="1">
          <mxGeometry x="685" y="220" width="10" height="10" as="geometry" />
        </mxCell>
        <mxCell id="XnhMb_7bqTzePBn5cl9Z-37" value="Скдадники" style="text;html=1;align=center;verticalAlign=middle;resizable=0;points=[];autosize=1;strokeColor=none;fillColor=none;" vertex="1" parent="1">
          <mxGeometry x="680" y="220" width="80" height="30" as="geometry" />
        </mxCell>
        <mxCell id="XnhMb_7bqTzePBn5cl9Z-38" value="" style="rounded=0;orthogonalLoop=1;jettySize=auto;html=1;endArrow=halfCircle;endFill=0;endSize=6;strokeWidth=1;sketch=0;" edge="1" target="XnhMb_7bqTzePBn5cl9Z-40" parent="1" source="XnhMb_7bqTzePBn5cl9Z-15">
          <mxGeometry relative="1" as="geometry">
            <mxPoint x="545" y="485" as="sourcePoint" />
          </mxGeometry>
        </mxCell>
        <mxCell id="XnhMb_7bqTzePBn5cl9Z-39" value="" style="rounded=0;orthogonalLoop=1;jettySize=auto;html=1;endArrow=oval;endFill=0;sketch=0;sourcePerimeterSpacing=0;targetPerimeterSpacing=0;endSize=10;" edge="1" target="XnhMb_7bqTzePBn5cl9Z-40" parent="1" source="XnhMb_7bqTzePBn5cl9Z-16">
          <mxGeometry relative="1" as="geometry">
            <mxPoint x="505" y="485" as="sourcePoint" />
          </mxGeometry>
        </mxCell>
        <mxCell id="XnhMb_7bqTzePBn5cl9Z-40" value="" style="ellipse;whiteSpace=wrap;html=1;align=center;aspect=fixed;fillColor=none;strokeColor=none;resizable=0;perimeter=centerPerimeter;rotatable=0;allowArrows=0;points=[];outlineConnect=1;" vertex="1" parent="1">
          <mxGeometry x="520" y="480" width="10" height="10" as="geometry" />
        </mxCell>
        <mxCell id="XnhMb_7bqTzePBn5cl9Z-41" value="Інформація про коміт" style="text;html=1;align=center;verticalAlign=middle;resizable=0;points=[];autosize=1;strokeColor=none;fillColor=none;" vertex="1" parent="1">
          <mxGeometry x="465" y="480" width="140" height="30" as="geometry" />
        </mxCell>
        <mxCell id="XnhMb_7bqTzePBn5cl9Z-47" value="" style="rounded=0;orthogonalLoop=1;jettySize=auto;html=1;endArrow=halfCircle;endFill=0;endSize=6;strokeWidth=1;sketch=0;" edge="1" target="XnhMb_7bqTzePBn5cl9Z-49" parent="1" source="XnhMb_7bqTzePBn5cl9Z-33">
          <mxGeometry relative="1" as="geometry">
            <mxPoint x="290" y="195" as="sourcePoint" />
          </mxGeometry>
        </mxCell>
        <mxCell id="XnhMb_7bqTzePBn5cl9Z-48" value="" style="rounded=0;orthogonalLoop=1;jettySize=auto;html=1;endArrow=oval;endFill=0;sketch=0;sourcePerimeterSpacing=0;targetPerimeterSpacing=0;endSize=10;" edge="1" target="XnhMb_7bqTzePBn5cl9Z-49" parent="1" source="XnhMb_7bqTzePBn5cl9Z-1">
          <mxGeometry relative="1" as="geometry">
            <mxPoint x="250" y="195" as="sourcePoint" />
          </mxGeometry>
        </mxCell>
        <mxCell id="XnhMb_7bqTzePBn5cl9Z-49" value="" style="ellipse;whiteSpace=wrap;html=1;align=center;aspect=fixed;fillColor=none;strokeColor=none;resizable=0;perimeter=centerPerimeter;rotatable=0;allowArrows=0;points=[];outlineConnect=1;" vertex="1" parent="1">
          <mxGeometry x="265" y="190" width="10" height="10" as="geometry" />
        </mxCell>
        <mxCell id="XnhMb_7bqTzePBn5cl9Z-50" value="Пошук за ім&#39;ям" style="text;html=1;align=center;verticalAlign=middle;resizable=0;points=[];autosize=1;strokeColor=none;fillColor=none;" vertex="1" parent="1">
          <mxGeometry x="275" y="170" width="110" height="30" as="geometry" />
        </mxCell>
        <mxCell id="XnhMb_7bqTzePBn5cl9Z-51" value="«interface»&lt;br&gt;&lt;b&gt;Результати пошуку&lt;/b&gt;" style="html=1;whiteSpace=wrap;" vertex="1" parent="1">
          <mxGeometry x="50" y="110" width="110" height="50" as="geometry" />
        </mxCell>
        <mxCell id="XnhMb_7bqTzePBn5cl9Z-52" value="" style="endArrow=block;dashed=1;endFill=0;endSize=12;html=1;rounded=0;" edge="1" parent="1" source="XnhMb_7bqTzePBn5cl9Z-33" target="XnhMb_7bqTzePBn5cl9Z-51">
          <mxGeometry width="160" relative="1" as="geometry">
            <mxPoint x="261" y="280" as="sourcePoint" />
            <mxPoint x="90" y="60" as="targetPoint" />
          </mxGeometry>
        </mxCell>
        <mxCell id="XnhMb_7bqTzePBn5cl9Z-53" value="«interface»&lt;br&gt;&lt;b&gt;Відобразити&lt;/b&gt;&lt;div&gt;&lt;b&gt;Створити&lt;/b&gt;&lt;/div&gt;" style="html=1;whiteSpace=wrap;" vertex="1" parent="1">
          <mxGeometry x="795" y="300" width="110" height="50" as="geometry" />
        </mxCell>
        <mxCell id="XnhMb_7bqTzePBn5cl9Z-54" value="" style="rounded=0;orthogonalLoop=1;jettySize=auto;html=1;endArrow=halfCircle;endFill=0;endSize=6;strokeWidth=1;sketch=0;" edge="1" target="XnhMb_7bqTzePBn5cl9Z-56" parent="1" source="XnhMb_7bqTzePBn5cl9Z-12">
          <mxGeometry relative="1" as="geometry">
            <mxPoint x="800" y="335" as="sourcePoint" />
          </mxGeometry>
        </mxCell>
        <mxCell id="XnhMb_7bqTzePBn5cl9Z-55" value="" style="rounded=0;orthogonalLoop=1;jettySize=auto;html=1;endArrow=oval;endFill=0;sketch=0;sourcePerimeterSpacing=0;targetPerimeterSpacing=0;endSize=10;" edge="1" target="XnhMb_7bqTzePBn5cl9Z-56" parent="1" source="XnhMb_7bqTzePBn5cl9Z-53">
          <mxGeometry relative="1" as="geometry">
            <mxPoint x="760" y="335" as="sourcePoint" />
          </mxGeometry>
        </mxCell>
        <mxCell id="XnhMb_7bqTzePBn5cl9Z-56" value="" style="ellipse;whiteSpace=wrap;html=1;align=center;aspect=fixed;fillColor=none;strokeColor=none;resizable=0;perimeter=centerPerimeter;rotatable=0;allowArrows=0;points=[];outlineConnect=1;" vertex="1" parent="1">
          <mxGeometry x="765" y="270" width="10" height="10" as="geometry" />
        </mxCell>
        <mxCell id="XnhMb_7bqTzePBn5cl9Z-57" value="" style="rounded=0;orthogonalLoop=1;jettySize=auto;html=1;endArrow=halfCircle;endFill=0;endSize=6;strokeWidth=1;sketch=0;" edge="1" target="XnhMb_7bqTzePBn5cl9Z-59" parent="1" source="XnhMb_7bqTzePBn5cl9Z-11">
          <mxGeometry relative="1" as="geometry">
            <mxPoint x="600" y="115" as="sourcePoint" />
          </mxGeometry>
        </mxCell>
        <mxCell id="XnhMb_7bqTzePBn5cl9Z-58" value="" style="rounded=0;orthogonalLoop=1;jettySize=auto;html=1;endArrow=oval;endFill=0;sketch=0;sourcePerimeterSpacing=0;targetPerimeterSpacing=0;endSize=10;" edge="1" target="XnhMb_7bqTzePBn5cl9Z-59" parent="1" source="XnhMb_7bqTzePBn5cl9Z-9">
          <mxGeometry relative="1" as="geometry">
            <mxPoint x="560" y="180" as="sourcePoint" />
          </mxGeometry>
        </mxCell>
        <mxCell id="XnhMb_7bqTzePBn5cl9Z-59" value="" style="ellipse;whiteSpace=wrap;html=1;align=center;aspect=fixed;fillColor=none;strokeColor=none;resizable=0;perimeter=centerPerimeter;rotatable=0;allowArrows=0;points=[];outlineConnect=1;" vertex="1" parent="1">
          <mxGeometry x="570" y="128" width="10" height="10" as="geometry" />
        </mxCell>
        <mxCell id="XnhMb_7bqTzePBn5cl9Z-60" value="Визначення&amp;nbsp;&lt;div&gt;відповідального&lt;/div&gt;" style="text;html=1;align=center;verticalAlign=middle;resizable=0;points=[];autosize=1;strokeColor=none;fillColor=none;" vertex="1" parent="1">
          <mxGeometry x="530" y="70" width="110" height="40" as="geometry" />
        </mxCell>
        <mxCell id="XnhMb_7bqTzePBn5cl9Z-61" value="" style="rounded=0;orthogonalLoop=1;jettySize=auto;html=1;endArrow=halfCircle;endFill=0;endSize=6;strokeWidth=1;sketch=0;" edge="1" target="XnhMb_7bqTzePBn5cl9Z-63" parent="1" source="XnhMb_7bqTzePBn5cl9Z-14">
          <mxGeometry relative="1" as="geometry">
            <mxPoint x="640" y="425" as="sourcePoint" />
          </mxGeometry>
        </mxCell>
        <mxCell id="XnhMb_7bqTzePBn5cl9Z-62" value="" style="rounded=0;orthogonalLoop=1;jettySize=auto;html=1;endArrow=oval;endFill=0;sketch=0;sourcePerimeterSpacing=0;targetPerimeterSpacing=0;endSize=10;" edge="1" target="XnhMb_7bqTzePBn5cl9Z-63" parent="1" source="XnhMb_7bqTzePBn5cl9Z-15">
          <mxGeometry relative="1" as="geometry">
            <mxPoint x="600" y="425" as="sourcePoint" />
          </mxGeometry>
        </mxCell>
        <mxCell id="XnhMb_7bqTzePBn5cl9Z-63" value="" style="ellipse;whiteSpace=wrap;html=1;align=center;aspect=fixed;fillColor=none;strokeColor=none;resizable=0;perimeter=centerPerimeter;rotatable=0;allowArrows=0;points=[];outlineConnect=1;" vertex="1" parent="1">
          <mxGeometry x="615" y="420" width="10" height="10" as="geometry" />
        </mxCell>
        <mxCell id="XnhMb_7bqTzePBn5cl9Z-64" value="коміти" style="text;html=1;align=center;verticalAlign=middle;resizable=0;points=[];autosize=1;strokeColor=none;fillColor=none;" vertex="1" parent="1">
          <mxGeometry x="590" y="420" width="60" height="30" as="geometry" />
        </mxCell>
        <mxCell id="XnhMb_7bqTzePBn5cl9Z-67" value="" style="ellipse;whiteSpace=wrap;html=1;align=center;aspect=fixed;fillColor=none;strokeColor=none;resizable=0;perimeter=centerPerimeter;rotatable=0;allowArrows=0;points=[];outlineConnect=1;" vertex="1" parent="1">
          <mxGeometry x="625" y="590" width="10" height="10" as="geometry" />
        </mxCell>
        <mxCell id="XnhMb_7bqTzePBn5cl9Z-70" value="" style="rounded=0;orthogonalLoop=1;jettySize=auto;html=1;endArrow=halfCircle;endFill=0;endSize=6;strokeWidth=1;sketch=0;entryX=0.514;entryY=0.786;entryDx=0;entryDy=0;entryPerimeter=0;" edge="1" target="XnhMb_7bqTzePBn5cl9Z-72" parent="1" source="XnhMb_7bqTzePBn5cl9Z-21">
          <mxGeometry relative="1" as="geometry">
            <mxPoint x="335.93874999999997" y="590" as="sourcePoint" />
            <mxPoint x="315" y="560" as="targetPoint" />
          </mxGeometry>
        </mxCell>
        <mxCell id="XnhMb_7bqTzePBn5cl9Z-71" value="" style="rounded=0;orthogonalLoop=1;jettySize=auto;html=1;endArrow=oval;endFill=0;sketch=0;sourcePerimeterSpacing=0;targetPerimeterSpacing=0;endSize=10;" edge="1" target="XnhMb_7bqTzePBn5cl9Z-72" parent="1" source="XnhMb_7bqTzePBn5cl9Z-23">
          <mxGeometry relative="1" as="geometry">
            <mxPoint x="235" y="575" as="sourcePoint" />
          </mxGeometry>
        </mxCell>
        <mxCell id="XnhMb_7bqTzePBn5cl9Z-72" value="" style="ellipse;whiteSpace=wrap;html=1;align=center;aspect=fixed;fillColor=none;strokeColor=none;resizable=0;perimeter=centerPerimeter;rotatable=0;allowArrows=0;points=[];outlineConnect=1;" vertex="1" parent="1">
          <mxGeometry x="310" y="550" width="10" height="10" as="geometry" />
        </mxCell>
        <mxCell id="XnhMb_7bqTzePBn5cl9Z-73" value="" style="rounded=0;orthogonalLoop=1;jettySize=auto;html=1;endArrow=halfCircle;endFill=0;endSize=6;strokeWidth=1;sketch=0;" edge="1" target="XnhMb_7bqTzePBn5cl9Z-75" parent="1" source="XnhMb_7bqTzePBn5cl9Z-21">
          <mxGeometry relative="1" as="geometry">
            <mxPoint x="275" y="709" as="sourcePoint" />
          </mxGeometry>
        </mxCell>
        <mxCell id="XnhMb_7bqTzePBn5cl9Z-74" value="" style="rounded=0;orthogonalLoop=1;jettySize=auto;html=1;endArrow=oval;endFill=0;sketch=0;sourcePerimeterSpacing=0;targetPerimeterSpacing=0;endSize=10;" edge="1" target="XnhMb_7bqTzePBn5cl9Z-75" parent="1" source="XnhMb_7bqTzePBn5cl9Z-24">
          <mxGeometry relative="1" as="geometry">
            <mxPoint x="235" y="709" as="sourcePoint" />
          </mxGeometry>
        </mxCell>
        <mxCell id="XnhMb_7bqTzePBn5cl9Z-75" value="" style="ellipse;whiteSpace=wrap;html=1;align=center;aspect=fixed;fillColor=none;strokeColor=none;resizable=0;perimeter=centerPerimeter;rotatable=0;allowArrows=0;points=[];outlineConnect=1;" vertex="1" parent="1">
          <mxGeometry x="245" y="654" width="10" height="10" as="geometry" />
        </mxCell>
        <mxCell id="XnhMb_7bqTzePBn5cl9Z-76" value="" style="rounded=0;orthogonalLoop=1;jettySize=auto;html=1;endArrow=halfCircle;endFill=0;endSize=6;strokeWidth=1;sketch=0;" edge="1" target="XnhMb_7bqTzePBn5cl9Z-78" parent="1" source="XnhMb_7bqTzePBn5cl9Z-21">
          <mxGeometry relative="1" as="geometry">
            <mxPoint x="360" y="699" as="sourcePoint" />
          </mxGeometry>
        </mxCell>
        <mxCell id="XnhMb_7bqTzePBn5cl9Z-77" value="" style="rounded=0;orthogonalLoop=1;jettySize=auto;html=1;endArrow=oval;endFill=0;sketch=0;sourcePerimeterSpacing=0;targetPerimeterSpacing=0;endSize=10;" edge="1" target="XnhMb_7bqTzePBn5cl9Z-78" parent="1" source="XnhMb_7bqTzePBn5cl9Z-26">
          <mxGeometry relative="1" as="geometry">
            <mxPoint x="320" y="699" as="sourcePoint" />
          </mxGeometry>
        </mxCell>
        <mxCell id="XnhMb_7bqTzePBn5cl9Z-78" value="" style="ellipse;whiteSpace=wrap;html=1;align=center;aspect=fixed;fillColor=none;strokeColor=none;resizable=0;perimeter=centerPerimeter;rotatable=0;allowArrows=0;points=[];outlineConnect=1;" vertex="1" parent="1">
          <mxGeometry x="375" y="645" width="10" height="10" as="geometry" />
        </mxCell>
        <mxCell id="XnhMb_7bqTzePBn5cl9Z-79" value="" style="rounded=0;orthogonalLoop=1;jettySize=auto;html=1;endArrow=halfCircle;endFill=0;endSize=6;strokeWidth=1;sketch=0;" edge="1" target="XnhMb_7bqTzePBn5cl9Z-81" parent="1" source="XnhMb_7bqTzePBn5cl9Z-23">
          <mxGeometry relative="1" as="geometry">
            <mxPoint x="225" y="535" as="sourcePoint" />
          </mxGeometry>
        </mxCell>
        <mxCell id="XnhMb_7bqTzePBn5cl9Z-80" value="" style="rounded=0;orthogonalLoop=1;jettySize=auto;html=1;endArrow=oval;endFill=0;sketch=0;sourcePerimeterSpacing=0;targetPerimeterSpacing=0;endSize=10;" edge="1" target="XnhMb_7bqTzePBn5cl9Z-81" parent="1" source="XnhMb_7bqTzePBn5cl9Z-8">
          <mxGeometry relative="1" as="geometry">
            <mxPoint x="250" y="535" as="sourcePoint" />
          </mxGeometry>
        </mxCell>
        <mxCell id="XnhMb_7bqTzePBn5cl9Z-81" value="" style="ellipse;whiteSpace=wrap;html=1;align=center;aspect=fixed;fillColor=none;strokeColor=none;resizable=0;perimeter=centerPerimeter;rotatable=0;allowArrows=0;points=[];outlineConnect=1;" vertex="1" parent="1">
          <mxGeometry x="355" y="430" width="10" height="10" as="geometry" />
        </mxCell>
        <mxCell id="XnhMb_7bqTzePBn5cl9Z-82" value="Працівник за яким робиться" style="text;html=1;align=center;verticalAlign=middle;resizable=0;points=[];autosize=1;strokeColor=none;fillColor=none;" vertex="1" parent="1">
          <mxGeometry x="265" y="390" width="180" height="30" as="geometry" />
        </mxCell>
        <mxCell id="XnhMb_7bqTzePBn5cl9Z-84" value="тип звіту (на вибір)" style="text;html=1;align=center;verticalAlign=middle;resizable=0;points=[];autosize=1;strokeColor=none;fillColor=none;" vertex="1" parent="1">
          <mxGeometry x="250" y="640" width="130" height="30" as="geometry" />
        </mxCell>
        <mxCell id="XnhMb_7bqTzePBn5cl9Z-85" value="" style="rounded=0;orthogonalLoop=1;jettySize=auto;html=1;endArrow=halfCircle;endFill=0;endSize=6;strokeWidth=1;sketch=0;" edge="1" target="XnhMb_7bqTzePBn5cl9Z-87" parent="1" source="XnhMb_7bqTzePBn5cl9Z-8">
          <mxGeometry relative="1" as="geometry">
            <mxPoint x="620" y="263" as="sourcePoint" />
          </mxGeometry>
        </mxCell>
        <mxCell id="XnhMb_7bqTzePBn5cl9Z-86" value="" style="rounded=0;orthogonalLoop=1;jettySize=auto;html=1;endArrow=oval;endFill=0;sketch=0;sourcePerimeterSpacing=0;targetPerimeterSpacing=0;endSize=10;" edge="1" target="XnhMb_7bqTzePBn5cl9Z-87" parent="1" source="XnhMb_7bqTzePBn5cl9Z-12">
          <mxGeometry relative="1" as="geometry">
            <mxPoint x="580" y="263" as="sourcePoint" />
          </mxGeometry>
        </mxCell>
        <mxCell id="XnhMb_7bqTzePBn5cl9Z-87" value="" style="ellipse;whiteSpace=wrap;html=1;align=center;aspect=fixed;fillColor=none;strokeColor=none;resizable=0;perimeter=centerPerimeter;rotatable=0;allowArrows=0;points=[];outlineConnect=1;" vertex="1" parent="1">
          <mxGeometry x="595" y="258" width="10" height="10" as="geometry" />
        </mxCell>
        <mxCell id="XnhMb_7bqTzePBn5cl9Z-88" value="Завдання" style="text;html=1;align=center;verticalAlign=middle;resizable=0;points=[];autosize=1;strokeColor=none;fillColor=none;" vertex="1" parent="1">
          <mxGeometry x="570" y="228" width="80" height="30" as="geometry" />
        </mxCell>
        <mxCell id="XnhMb_7bqTzePBn5cl9Z-89" value="" style="rounded=0;orthogonalLoop=1;jettySize=auto;html=1;endArrow=halfCircle;endFill=0;endSize=6;strokeWidth=1;sketch=0;" edge="1" target="XnhMb_7bqTzePBn5cl9Z-91" parent="1" source="XnhMb_7bqTzePBn5cl9Z-12">
          <mxGeometry relative="1" as="geometry">
            <mxPoint x="720" y="335" as="sourcePoint" />
          </mxGeometry>
        </mxCell>
        <mxCell id="XnhMb_7bqTzePBn5cl9Z-90" value="" style="rounded=0;orthogonalLoop=1;jettySize=auto;html=1;endArrow=oval;endFill=0;sketch=0;sourcePerimeterSpacing=0;targetPerimeterSpacing=0;endSize=10;" edge="1" target="XnhMb_7bqTzePBn5cl9Z-91" parent="1" source="XnhMb_7bqTzePBn5cl9Z-14">
          <mxGeometry relative="1" as="geometry">
            <mxPoint x="680" y="335" as="sourcePoint" />
          </mxGeometry>
        </mxCell>
        <mxCell id="XnhMb_7bqTzePBn5cl9Z-91" value="" style="ellipse;whiteSpace=wrap;html=1;align=center;aspect=fixed;fillColor=none;strokeColor=none;resizable=0;perimeter=centerPerimeter;rotatable=0;allowArrows=0;points=[];outlineConnect=1;" vertex="1" parent="1">
          <mxGeometry x="695" y="330" width="10" height="10" as="geometry" />
        </mxCell>
        <mxCell id="XnhMb_7bqTzePBn5cl9Z-92" value="Історія комітів" style="text;html=1;align=center;verticalAlign=middle;resizable=0;points=[];autosize=1;strokeColor=none;fillColor=none;" vertex="1" parent="1">
          <mxGeometry x="700" y="340" width="100" height="30" as="geometry" />
        </mxCell>
        <mxCell id="XnhMb_7bqTzePBn5cl9Z-93" value="" style="rounded=0;orthogonalLoop=1;jettySize=auto;html=1;endArrow=halfCircle;endFill=0;endSize=6;strokeWidth=1;sketch=0;" edge="1" target="XnhMb_7bqTzePBn5cl9Z-95" parent="1" source="XnhMb_7bqTzePBn5cl9Z-13">
          <mxGeometry relative="1" as="geometry">
            <mxPoint x="665" y="335" as="sourcePoint" />
          </mxGeometry>
        </mxCell>
        <mxCell id="XnhMb_7bqTzePBn5cl9Z-94" value="" style="rounded=0;orthogonalLoop=1;jettySize=auto;html=1;endArrow=oval;endFill=0;sketch=0;sourcePerimeterSpacing=0;targetPerimeterSpacing=0;endSize=10;" edge="1" target="XnhMb_7bqTzePBn5cl9Z-95" parent="1" source="XnhMb_7bqTzePBn5cl9Z-12">
          <mxGeometry relative="1" as="geometry">
            <mxPoint x="625" y="335" as="sourcePoint" />
          </mxGeometry>
        </mxCell>
        <mxCell id="XnhMb_7bqTzePBn5cl9Z-95" value="" style="ellipse;whiteSpace=wrap;html=1;align=center;aspect=fixed;fillColor=none;strokeColor=none;resizable=0;perimeter=centerPerimeter;rotatable=0;allowArrows=0;points=[];outlineConnect=1;" vertex="1" parent="1">
          <mxGeometry x="640" y="330" width="10" height="10" as="geometry" />
        </mxCell>
        <mxCell id="XnhMb_7bqTzePBn5cl9Z-96" value="Завдання&lt;div&gt;на дошці&lt;/div&gt;" style="text;html=1;align=center;verticalAlign=middle;resizable=0;points=[];autosize=1;strokeColor=none;fillColor=none;" vertex="1" parent="1">
          <mxGeometry x="615" y="330" width="80" height="40" as="geometry" />
        </mxCell>
        <mxCell id="XnhMb_7bqTzePBn5cl9Z-97" value="" style="rounded=0;orthogonalLoop=1;jettySize=auto;html=1;endArrow=halfCircle;endFill=0;endSize=6;strokeWidth=1;sketch=0;" edge="1" target="XnhMb_7bqTzePBn5cl9Z-99" parent="1" source="XnhMb_7bqTzePBn5cl9Z-8">
          <mxGeometry relative="1" as="geometry">
            <mxPoint x="580" y="293" as="sourcePoint" />
          </mxGeometry>
        </mxCell>
        <mxCell id="XnhMb_7bqTzePBn5cl9Z-98" value="" style="rounded=0;orthogonalLoop=1;jettySize=auto;html=1;endArrow=oval;endFill=0;sketch=0;sourcePerimeterSpacing=0;targetPerimeterSpacing=0;endSize=10;" edge="1" target="XnhMb_7bqTzePBn5cl9Z-99" parent="1" source="XnhMb_7bqTzePBn5cl9Z-13">
          <mxGeometry relative="1" as="geometry">
            <mxPoint x="540" y="293" as="sourcePoint" />
          </mxGeometry>
        </mxCell>
        <mxCell id="XnhMb_7bqTzePBn5cl9Z-99" value="" style="ellipse;whiteSpace=wrap;html=1;align=center;aspect=fixed;fillColor=none;strokeColor=none;resizable=0;perimeter=centerPerimeter;rotatable=0;allowArrows=0;points=[];outlineConnect=1;" vertex="1" parent="1">
          <mxGeometry x="555" y="288" width="10" height="10" as="geometry" />
        </mxCell>
        <mxCell id="XnhMb_7bqTzePBn5cl9Z-100" value="Завдання" style="text;html=1;align=center;verticalAlign=middle;resizable=0;points=[];autosize=1;strokeColor=none;fillColor=none;" vertex="1" parent="1">
          <mxGeometry x="550" y="278" width="80" height="30" as="geometry" />
        </mxCell>
        <mxCell id="XnhMb_7bqTzePBn5cl9Z-101" value="«interface»&lt;br&gt;&lt;b&gt;Показати завдання дошки&lt;/b&gt;" style="html=1;whiteSpace=wrap;" vertex="1" parent="1">
          <mxGeometry x="480" y="370" width="160" height="30" as="geometry" />
        </mxCell>
        <mxCell id="XnhMb_7bqTzePBn5cl9Z-103" value="" style="endArrow=block;dashed=1;endFill=0;endSize=12;html=1;rounded=0;" edge="1" parent="1" source="XnhMb_7bqTzePBn5cl9Z-17" target="XnhMb_7bqTzePBn5cl9Z-19">
          <mxGeometry width="160" relative="1" as="geometry">
            <mxPoint x="600" y="600" as="sourcePoint" />
            <mxPoint x="760" y="600" as="targetPoint" />
          </mxGeometry>
        </mxCell>
        <mxCell id="XnhMb_7bqTzePBn5cl9Z-104" value="" style="endArrow=block;dashed=1;endFill=0;endSize=12;html=1;rounded=0;" edge="1" parent="1" source="XnhMb_7bqTzePBn5cl9Z-17" target="XnhMb_7bqTzePBn5cl9Z-18">
          <mxGeometry width="160" relative="1" as="geometry">
            <mxPoint x="675" y="570" as="sourcePoint" />
            <mxPoint x="590" y="631" as="targetPoint" />
          </mxGeometry>
        </mxCell>
        <mxCell id="XnhMb_7bqTzePBn5cl9Z-105" value="" style="rounded=0;orthogonalLoop=1;jettySize=auto;html=1;endArrow=halfCircle;endFill=0;endSize=6;strokeWidth=1;sketch=0;" edge="1" parent="1" source="XnhMb_7bqTzePBn5cl9Z-19">
          <mxGeometry relative="1" as="geometry">
            <mxPoint x="930" y="475" as="sourcePoint" />
            <mxPoint x="750" y="180" as="targetPoint" />
          </mxGeometry>
        </mxCell>
        <mxCell id="XnhMb_7bqTzePBn5cl9Z-106" value="" style="rounded=0;orthogonalLoop=1;jettySize=auto;html=1;endArrow=oval;endFill=0;sketch=0;sourcePerimeterSpacing=0;targetPerimeterSpacing=0;endSize=10;" edge="1" parent="1" source="XnhMb_7bqTzePBn5cl9Z-12">
          <mxGeometry relative="1" as="geometry">
            <mxPoint x="890" y="475" as="sourcePoint" />
            <mxPoint x="750" y="180" as="targetPoint" />
          </mxGeometry>
        </mxCell>
        <mxCell id="XnhMb_7bqTzePBn5cl9Z-107" value="" style="ellipse;whiteSpace=wrap;html=1;align=center;aspect=fixed;fillColor=none;strokeColor=none;resizable=0;perimeter=centerPerimeter;rotatable=0;allowArrows=0;points=[];outlineConnect=1;" vertex="1" parent="1">
          <mxGeometry x="905" y="470" width="10" height="10" as="geometry" />
        </mxCell>
        <mxCell id="XnhMb_7bqTzePBn5cl9Z-108" value="Дані завдання" style="text;html=1;align=center;verticalAlign=middle;resizable=0;points=[];autosize=1;strokeColor=none;fillColor=none;" vertex="1" parent="1">
          <mxGeometry x="740" y="200" width="100" height="30" as="geometry" />
        </mxCell>
        <mxCell id="XnhMb_7bqTzePBn5cl9Z-111" value="" style="rounded=0;orthogonalLoop=1;jettySize=auto;html=1;endArrow=halfCircle;endFill=0;endSize=6;strokeWidth=1;sketch=0;" edge="1" target="XnhMb_7bqTzePBn5cl9Z-113" parent="1" source="XnhMb_7bqTzePBn5cl9Z-18">
          <mxGeometry relative="1" as="geometry">
            <mxPoint x="330" y="225" as="sourcePoint" />
          </mxGeometry>
        </mxCell>
        <mxCell id="XnhMb_7bqTzePBn5cl9Z-112" value="" style="rounded=0;orthogonalLoop=1;jettySize=auto;html=1;endArrow=oval;endFill=0;sketch=0;sourcePerimeterSpacing=0;targetPerimeterSpacing=0;endSize=10;" edge="1" target="XnhMb_7bqTzePBn5cl9Z-113" parent="1" source="XnhMb_7bqTzePBn5cl9Z-1">
          <mxGeometry relative="1" as="geometry">
            <mxPoint x="290" y="225" as="sourcePoint" />
          </mxGeometry>
        </mxCell>
        <mxCell id="XnhMb_7bqTzePBn5cl9Z-113" value="" style="ellipse;whiteSpace=wrap;html=1;align=center;aspect=fixed;fillColor=none;strokeColor=none;resizable=0;perimeter=centerPerimeter;rotatable=0;allowArrows=0;points=[];outlineConnect=1;" vertex="1" parent="1">
          <mxGeometry x="385" y="180" width="10" height="10" as="geometry" />
        </mxCell>
        <mxCell id="XnhMb_7bqTzePBn5cl9Z-114" value="Профіль" style="text;html=1;align=center;verticalAlign=middle;resizable=0;points=[];autosize=1;strokeColor=none;fillColor=none;" vertex="1" parent="1">
          <mxGeometry x="345" y="138" width="70" height="30" as="geometry" />
        </mxCell>
        <mxCell id="XnhMb_7bqTzePBn5cl9Z-116" value="" style="rounded=0;orthogonalLoop=1;jettySize=auto;html=1;endArrow=halfCircle;endFill=0;endSize=6;strokeWidth=1;sketch=0;" edge="1" target="XnhMb_7bqTzePBn5cl9Z-118" parent="1" source="XnhMb_7bqTzePBn5cl9Z-17">
          <mxGeometry relative="1" as="geometry">
            <mxPoint x="990" y="40" as="sourcePoint" />
            <Array as="points">
              <mxPoint x="940" y="80" />
              <mxPoint x="1040" y="110" />
              <mxPoint x="1020" y="200" />
            </Array>
          </mxGeometry>
        </mxCell>
        <mxCell id="XnhMb_7bqTzePBn5cl9Z-117" value="" style="rounded=0;orthogonalLoop=1;jettySize=auto;html=1;endArrow=oval;endFill=0;sketch=0;sourcePerimeterSpacing=0;targetPerimeterSpacing=0;endSize=10;" edge="1" target="XnhMb_7bqTzePBn5cl9Z-118" parent="1" source="XnhMb_7bqTzePBn5cl9Z-8">
          <mxGeometry relative="1" as="geometry">
            <mxPoint x="440" y="430" as="sourcePoint" />
            <Array as="points">
              <mxPoint x="440" y="450" />
              <mxPoint x="470" y="580" />
              <mxPoint x="600" y="580" />
              <mxPoint x="750" y="580" />
              <mxPoint x="830" y="520" />
            </Array>
          </mxGeometry>
        </mxCell>
        <mxCell id="XnhMb_7bqTzePBn5cl9Z-118" value="" style="ellipse;whiteSpace=wrap;html=1;align=center;aspect=fixed;fillColor=none;strokeColor=none;resizable=0;perimeter=centerPerimeter;rotatable=0;allowArrows=0;points=[];outlineConnect=1;" vertex="1" parent="1">
          <mxGeometry x="970" y="310" width="10" height="10" as="geometry" />
        </mxCell>
        <mxCell id="XnhMb_7bqTzePBn5cl9Z-119" value="Джерело запиту" style="text;html=1;align=center;verticalAlign=middle;resizable=0;points=[];autosize=1;strokeColor=none;fillColor=none;" vertex="1" parent="1">
          <mxGeometry x="945" y="288" width="110" height="30" as="geometry" />
        </mxCell>
        <mxCell id="XnhMb_7bqTzePBn5cl9Z-124" value="«interface»&lt;br&gt;&lt;b&gt;Показати історію&lt;/b&gt;&lt;div&gt;&lt;b&gt;пошук коміту&lt;/b&gt;&lt;/div&gt;" style="html=1;whiteSpace=wrap;" vertex="1" parent="1">
          <mxGeometry x="717" y="450" width="110" height="50" as="geometry" />
        </mxCell>
        <mxCell id="XnhMb_7bqTzePBn5cl9Z-125" value="" style="endArrow=block;dashed=1;endFill=0;endSize=12;html=1;rounded=0;" edge="1" parent="1" source="XnhMb_7bqTzePBn5cl9Z-14" target="XnhMb_7bqTzePBn5cl9Z-124">
          <mxGeometry width="160" relative="1" as="geometry">
            <mxPoint x="770" y="380" as="sourcePoint" />
            <mxPoint x="930" y="380" as="targetPoint" />
          </mxGeometry>
        </mxCell>
        <mxCell id="XnhMb_7bqTzePBn5cl9Z-126" value="«interface»&lt;br&gt;&lt;b&gt;Показати коміт&lt;/b&gt;" style="html=1;whiteSpace=wrap;" vertex="1" parent="1">
          <mxGeometry x="630" y="520" width="110" height="50" as="geometry" />
        </mxCell>
        <mxCell id="XnhMb_7bqTzePBn5cl9Z-127" value="" style="endArrow=block;dashed=1;endFill=0;endSize=12;html=1;rounded=0;" edge="1" parent="1" source="XnhMb_7bqTzePBn5cl9Z-15" target="XnhMb_7bqTzePBn5cl9Z-126">
          <mxGeometry width="160" relative="1" as="geometry">
            <mxPoint x="742" y="440" as="sourcePoint" />
            <mxPoint x="760" y="460" as="targetPoint" />
          </mxGeometry>
        </mxCell>
        <mxCell id="XnhMb_7bqTzePBn5cl9Z-128" value="Компанія (+ сервер)" style="shape=module;align=left;spacingLeft=20;align=center;verticalAlign=top;whiteSpace=wrap;html=1;" vertex="1" parent="1">
          <mxGeometry x="550" y="160" width="100" height="50" as="geometry" />
        </mxCell>
        <mxCell id="XnhMb_7bqTzePBn5cl9Z-129" value="" style="rounded=0;orthogonalLoop=1;jettySize=auto;html=1;endArrow=halfCircle;endFill=0;endSize=6;strokeWidth=1;sketch=0;" edge="1" target="XnhMb_7bqTzePBn5cl9Z-131" parent="1" source="XnhMb_7bqTzePBn5cl9Z-11">
          <mxGeometry relative="1" as="geometry">
            <mxPoint x="700" y="185" as="sourcePoint" />
          </mxGeometry>
        </mxCell>
        <mxCell id="XnhMb_7bqTzePBn5cl9Z-130" value="" style="rounded=0;orthogonalLoop=1;jettySize=auto;html=1;endArrow=oval;endFill=0;sketch=0;sourcePerimeterSpacing=0;targetPerimeterSpacing=0;endSize=10;" edge="1" target="XnhMb_7bqTzePBn5cl9Z-131" parent="1" source="XnhMb_7bqTzePBn5cl9Z-128">
          <mxGeometry relative="1" as="geometry">
            <mxPoint x="660" y="185" as="sourcePoint" />
          </mxGeometry>
        </mxCell>
        <mxCell id="XnhMb_7bqTzePBn5cl9Z-131" value="" style="ellipse;whiteSpace=wrap;html=1;align=center;aspect=fixed;fillColor=none;strokeColor=none;resizable=0;perimeter=centerPerimeter;rotatable=0;allowArrows=0;points=[];outlineConnect=1;" vertex="1" parent="1">
          <mxGeometry x="675" y="180" width="10" height="10" as="geometry" />
        </mxCell>
        <mxCell id="XnhMb_7bqTzePBn5cl9Z-132" value="" style="rounded=0;orthogonalLoop=1;jettySize=auto;html=1;endArrow=halfCircle;endFill=0;endSize=6;strokeWidth=1;sketch=0;" edge="1" target="XnhMb_7bqTzePBn5cl9Z-134" parent="1">
          <mxGeometry relative="1" as="geometry">
            <mxPoint x="550" y="173" as="sourcePoint" />
          </mxGeometry>
        </mxCell>
        <mxCell id="XnhMb_7bqTzePBn5cl9Z-133" value="" style="rounded=0;orthogonalLoop=1;jettySize=auto;html=1;endArrow=oval;endFill=0;sketch=0;sourcePerimeterSpacing=0;targetPerimeterSpacing=0;endSize=10;" edge="1" target="XnhMb_7bqTzePBn5cl9Z-134" parent="1" source="XnhMb_7bqTzePBn5cl9Z-9">
          <mxGeometry relative="1" as="geometry">
            <mxPoint x="510" y="173" as="sourcePoint" />
          </mxGeometry>
        </mxCell>
        <mxCell id="XnhMb_7bqTzePBn5cl9Z-134" value="" style="ellipse;whiteSpace=wrap;html=1;align=center;aspect=fixed;fillColor=none;strokeColor=none;resizable=0;perimeter=centerPerimeter;rotatable=0;allowArrows=0;points=[];outlineConnect=1;" vertex="1" parent="1">
          <mxGeometry x="525" y="180" width="10" height="10" as="geometry" />
        </mxCell>
        <mxCell id="XnhMb_7bqTzePBn5cl9Z-135" value="" style="rounded=0;orthogonalLoop=1;jettySize=auto;html=1;endArrow=halfCircle;endFill=0;endSize=6;strokeWidth=1;sketch=0;" edge="1" target="XnhMb_7bqTzePBn5cl9Z-137" parent="1" source="XnhMb_7bqTzePBn5cl9Z-10">
          <mxGeometry relative="1" as="geometry">
            <mxPoint x="575" y="235" as="sourcePoint" />
          </mxGeometry>
        </mxCell>
        <mxCell id="XnhMb_7bqTzePBn5cl9Z-136" value="" style="rounded=0;orthogonalLoop=1;jettySize=auto;html=1;endArrow=oval;endFill=0;sketch=0;sourcePerimeterSpacing=0;targetPerimeterSpacing=0;endSize=10;" edge="1" target="XnhMb_7bqTzePBn5cl9Z-137" parent="1" source="XnhMb_7bqTzePBn5cl9Z-128">
          <mxGeometry relative="1" as="geometry">
            <mxPoint x="535" y="235" as="sourcePoint" />
          </mxGeometry>
        </mxCell>
        <mxCell id="XnhMb_7bqTzePBn5cl9Z-137" value="" style="ellipse;whiteSpace=wrap;html=1;align=center;aspect=fixed;fillColor=none;strokeColor=none;resizable=0;perimeter=centerPerimeter;rotatable=0;allowArrows=0;points=[];outlineConnect=1;" vertex="1" parent="1">
          <mxGeometry x="540" y="228" width="10" height="10" as="geometry" />
        </mxCell>
        <mxCell id="XnhMb_7bqTzePBn5cl9Z-138" value="" style="rounded=0;orthogonalLoop=1;jettySize=auto;html=1;endArrow=halfCircle;endFill=0;endSize=6;strokeWidth=1;sketch=0;" edge="1" target="XnhMb_7bqTzePBn5cl9Z-140" parent="1" source="XnhMb_7bqTzePBn5cl9Z-8">
          <mxGeometry relative="1" as="geometry">
            <mxPoint x="665" y="235" as="sourcePoint" />
          </mxGeometry>
        </mxCell>
        <mxCell id="XnhMb_7bqTzePBn5cl9Z-139" value="" style="rounded=0;orthogonalLoop=1;jettySize=auto;html=1;endArrow=oval;endFill=0;sketch=0;sourcePerimeterSpacing=0;targetPerimeterSpacing=0;endSize=10;" edge="1" target="XnhMb_7bqTzePBn5cl9Z-140" parent="1" source="XnhMb_7bqTzePBn5cl9Z-128">
          <mxGeometry relative="1" as="geometry">
            <mxPoint x="625" y="235" as="sourcePoint" />
          </mxGeometry>
        </mxCell>
        <mxCell id="XnhMb_7bqTzePBn5cl9Z-140" value="" style="ellipse;whiteSpace=wrap;html=1;align=center;aspect=fixed;fillColor=none;strokeColor=none;resizable=0;perimeter=centerPerimeter;rotatable=0;allowArrows=0;points=[];outlineConnect=1;" vertex="1" parent="1">
          <mxGeometry x="550" y="248" width="10" height="10" as="geometry" />
        </mxCell>
      </root>
    </mxGraphModel>
  </diagram>
</mxfile>
